<svg version="1.1" id="Layer_1" xmlns="http://www.w3.org/2000/svg" xmlns:xlink="http://www.w3.org/1999/xlink" x="0px" y="0px"
	 viewBox="0 0 31.8 31.8" style="enable-background:new 0 0 31.8 31.8;" xml:space="preserve">
<style type="text/css">
	.st0{fill:#0076A9;}
	.st1{fill:#3E3935;}
</style>
<path class="st0" d="M15.4,14.1C10,19,2.5,21.5,0,22.2v3.6c4.8-0.9,11.7-2.7,17.7-6.4c3.5-2.2,10-6.8,14.1-12.8l0,0V0.1h-6.5
	C24.6,1.6,21.5,8.5,15.4,14.1"/>
<path class="st1" d="M18.5,20.8C12.2,24.6,5,26.5,0,27.5V31h0.1c1.8-0.2,11.6-1.3,19.3-5c6-2.9,11.4-7.7,12.4-8.7v-8
	C27.6,14.7,21.8,18.8,18.5,20.8"/>
<path class="st1" d="M14.3,12.9c5.2-4.8,8.2-10.6,9.3-12.8H5.3C2.4,0.1,0,2.5,0,5.4v15.1C2.7,19.7,9.6,17.3,14.3,12.9"/>
<path class="st1" d="M20,27.5c-4.9,2.3-10.4,3.6-14.4,4.4h14.2h6.7c3,0,5.3-2.4,5.3-5.3v-7C29.7,21.4,25.1,25.1,20,27.5"/>
</svg>
